<mxfile host="app.diagrams.net" agent="Mozilla/5.0 (Windows NT 10.0; Win64; x64) AppleWebKit/537.36 (KHTML, like Gecko) Chrome/133.0.0.0 Safari/537.36 OPR/118.0.0.0" version="27.0.3">
  <diagram name="Strona-1" id="an3uFhh5M49dgWedt3TN">
    <mxGraphModel dx="2022" dy="1126" grid="1" gridSize="10" guides="1" tooltips="1" connect="1" arrows="1" fold="1" page="1" pageScale="1" pageWidth="827" pageHeight="1169" math="0" shadow="0">
      <root>
        <mxCell id="0" />
        <mxCell id="1" parent="0" />
        <mxCell id="YtqjyllSpUFCj2uCaILI-1" value="" style="rounded=1;whiteSpace=wrap;html=1;" vertex="1" parent="1">
          <mxGeometry x="4" width="996" height="60" as="geometry" />
        </mxCell>
        <mxCell id="YtqjyllSpUFCj2uCaILI-2" value="" style="shape=umlDestroy;whiteSpace=wrap;html=1;strokeWidth=3;targetShapes=umlLifeline;" vertex="1" parent="1">
          <mxGeometry x="20" y="10" width="70" height="40" as="geometry" />
        </mxCell>
        <mxCell id="YtqjyllSpUFCj2uCaILI-3" value="Paczka24" style="text;html=1;align=center;verticalAlign=middle;resizable=0;points=[];autosize=1;strokeColor=none;fillColor=none;fontStyle=1;fontSize=24;" vertex="1" parent="1">
          <mxGeometry x="110" y="10" width="130" height="40" as="geometry" />
        </mxCell>
        <mxCell id="YtqjyllSpUFCj2uCaILI-4" value="" style="html=1;verticalLabelPosition=bottom;align=center;labelBackgroundColor=#ffffff;verticalAlign=top;strokeWidth=2;shadow=0;dashed=0;shape=mxgraph.ios7.icons.most_viewed;pointerEvents=1;" vertex="1" parent="1">
          <mxGeometry x="917" y="18.600000000000023" width="28.2" height="22.8" as="geometry" />
        </mxCell>
        <mxCell id="YtqjyllSpUFCj2uCaILI-5" value="Wyloguj" style="rounded=0;whiteSpace=wrap;html=1;" vertex="1" parent="1">
          <mxGeometry x="820" y="15" width="90" height="30" as="geometry" />
        </mxCell>
        <mxCell id="YtqjyllSpUFCj2uCaILI-6" value="Użytkownik: X" style="text;html=1;align=center;verticalAlign=middle;resizable=0;points=[];autosize=1;strokeColor=none;fillColor=none;" vertex="1" parent="1">
          <mxGeometry x="255" y="18.599999999999994" width="100" height="30" as="geometry" />
        </mxCell>
        <mxCell id="YtqjyllSpUFCj2uCaILI-8" value="Dodaj Przesyłkę" style="rounded=0;whiteSpace=wrap;html=1;" vertex="1" parent="1">
          <mxGeometry x="20" y="80" width="980" height="60" as="geometry" />
        </mxCell>
        <mxCell id="YtqjyllSpUFCj2uCaILI-9" value="" style="rounded=0;whiteSpace=wrap;html=1;" vertex="1" parent="1">
          <mxGeometry x="20" y="190" width="980" height="420" as="geometry" />
        </mxCell>
        <mxCell id="YtqjyllSpUFCj2uCaILI-10" value="Id zamówienia" style="rounded=0;whiteSpace=wrap;html=1;" vertex="1" parent="1">
          <mxGeometry x="20" y="190" width="250" height="40" as="geometry" />
        </mxCell>
        <mxCell id="YtqjyllSpUFCj2uCaILI-11" value="Id nadawcy" style="rounded=0;whiteSpace=wrap;html=1;" vertex="1" parent="1">
          <mxGeometry x="270" y="190" width="230" height="40" as="geometry" />
        </mxCell>
        <mxCell id="YtqjyllSpUFCj2uCaILI-12" value="Data nadania" style="rounded=0;whiteSpace=wrap;html=1;" vertex="1" parent="1">
          <mxGeometry x="690" y="190" width="150" height="40" as="geometry" />
        </mxCell>
        <mxCell id="YtqjyllSpUFCj2uCaILI-13" value="Data wymagana" style="rounded=0;whiteSpace=wrap;html=1;" vertex="1" parent="1">
          <mxGeometry x="840" y="190" width="160" height="40" as="geometry" />
        </mxCell>
        <mxCell id="YtqjyllSpUFCj2uCaILI-21" value="Status przesyłki" style="rounded=0;whiteSpace=wrap;html=1;" vertex="1" parent="1">
          <mxGeometry x="500" y="190" width="190" height="40" as="geometry" />
        </mxCell>
        <mxCell id="YtqjyllSpUFCj2uCaILI-22" value="" style="html=1;verticalLabelPosition=bottom;align=center;labelBackgroundColor=#ffffff;verticalAlign=top;strokeWidth=2;strokeColor=#000000;shadow=0;dashed=0;shape=mxgraph.ios7.icons.settings;" vertex="1" parent="1">
          <mxGeometry x="960" y="15" width="30" height="30" as="geometry" />
        </mxCell>
        <mxCell id="YtqjyllSpUFCj2uCaILI-24" value="" style="rounded=0;whiteSpace=wrap;html=1;" vertex="1" parent="1">
          <mxGeometry x="20" y="230" width="980" height="50" as="geometry" />
        </mxCell>
        <mxCell id="YtqjyllSpUFCj2uCaILI-26" value="" style="rounded=0;whiteSpace=wrap;html=1;" vertex="1" parent="1">
          <mxGeometry x="20" y="280" width="980" height="50" as="geometry" />
        </mxCell>
        <mxCell id="YtqjyllSpUFCj2uCaILI-27" value="" style="rounded=0;whiteSpace=wrap;html=1;" vertex="1" parent="1">
          <mxGeometry x="20" y="330" width="980" height="50" as="geometry" />
        </mxCell>
        <mxCell id="YtqjyllSpUFCj2uCaILI-28" value="" style="rounded=0;whiteSpace=wrap;html=1;" vertex="1" parent="1">
          <mxGeometry x="20" y="380" width="980" height="50" as="geometry" />
        </mxCell>
        <mxCell id="YtqjyllSpUFCj2uCaILI-29" value="" style="rounded=0;whiteSpace=wrap;html=1;" vertex="1" parent="1">
          <mxGeometry x="20" y="430" width="980" height="50" as="geometry" />
        </mxCell>
        <mxCell id="YtqjyllSpUFCj2uCaILI-30" value="" style="rounded=0;whiteSpace=wrap;html=1;" vertex="1" parent="1">
          <mxGeometry x="20" y="480" width="980" height="50" as="geometry" />
        </mxCell>
        <mxCell id="YtqjyllSpUFCj2uCaILI-31" value="" style="rounded=0;whiteSpace=wrap;html=1;" vertex="1" parent="1">
          <mxGeometry x="20" y="530" width="980" height="50" as="geometry" />
        </mxCell>
        <mxCell id="YtqjyllSpUFCj2uCaILI-32" value="" style="rounded=0;whiteSpace=wrap;html=1;" vertex="1" parent="1">
          <mxGeometry x="20" y="580" width="980" height="50" as="geometry" />
        </mxCell>
        <mxCell id="YtqjyllSpUFCj2uCaILI-35" value="" style="endArrow=none;html=1;rounded=0;entryX=0;entryY=1;entryDx=0;entryDy=0;exitX=0.258;exitY=1.02;exitDx=0;exitDy=0;exitPerimeter=0;" edge="1" parent="1" source="YtqjyllSpUFCj2uCaILI-32" target="YtqjyllSpUFCj2uCaILI-11">
          <mxGeometry width="50" height="50" relative="1" as="geometry">
            <mxPoint x="270" y="620" as="sourcePoint" />
            <mxPoint x="440" y="530" as="targetPoint" />
          </mxGeometry>
        </mxCell>
        <mxCell id="YtqjyllSpUFCj2uCaILI-36" value="" style="endArrow=none;html=1;rounded=0;entryX=0;entryY=1;entryDx=0;entryDy=0;exitX=0.493;exitY=0.98;exitDx=0;exitDy=0;exitPerimeter=0;" edge="1" parent="1" source="YtqjyllSpUFCj2uCaILI-32" target="YtqjyllSpUFCj2uCaILI-21">
          <mxGeometry width="50" height="50" relative="1" as="geometry">
            <mxPoint x="390" y="580" as="sourcePoint" />
            <mxPoint x="440" y="530" as="targetPoint" />
          </mxGeometry>
        </mxCell>
        <mxCell id="YtqjyllSpUFCj2uCaILI-37" value="" style="endArrow=none;html=1;rounded=0;entryX=0;entryY=1;entryDx=0;entryDy=0;exitX=0.688;exitY=1.04;exitDx=0;exitDy=0;exitPerimeter=0;" edge="1" parent="1" source="YtqjyllSpUFCj2uCaILI-32" target="YtqjyllSpUFCj2uCaILI-12">
          <mxGeometry width="50" height="50" relative="1" as="geometry">
            <mxPoint x="390" y="580" as="sourcePoint" />
            <mxPoint x="440" y="530" as="targetPoint" />
          </mxGeometry>
        </mxCell>
        <mxCell id="YtqjyllSpUFCj2uCaILI-38" value="" style="endArrow=none;html=1;rounded=0;entryX=0;entryY=1;entryDx=0;entryDy=0;exitX=0.841;exitY=1.02;exitDx=0;exitDy=0;exitPerimeter=0;" edge="1" parent="1" source="YtqjyllSpUFCj2uCaILI-32" target="YtqjyllSpUFCj2uCaILI-13">
          <mxGeometry width="50" height="50" relative="1" as="geometry">
            <mxPoint x="390" y="580" as="sourcePoint" />
            <mxPoint x="440" y="530" as="targetPoint" />
          </mxGeometry>
        </mxCell>
        <mxCell id="YtqjyllSpUFCj2uCaILI-39" value="" style="triangle;whiteSpace=wrap;html=1;" vertex="1" parent="1">
          <mxGeometry x="963" y="650" width="27" height="30" as="geometry" />
        </mxCell>
        <mxCell id="YtqjyllSpUFCj2uCaILI-40" value="" style="triangle;whiteSpace=wrap;html=1;rotation=-180;" vertex="1" parent="1">
          <mxGeometry x="813" y="650" width="27" height="30" as="geometry" />
        </mxCell>
        <mxCell id="YtqjyllSpUFCj2uCaILI-42" value="Strona X z X" style="text;html=1;align=center;verticalAlign=middle;resizable=0;points=[];autosize=1;strokeColor=none;fillColor=none;fontSize=18;" vertex="1" parent="1">
          <mxGeometry x="840" y="645" width="120" height="40" as="geometry" />
        </mxCell>
      </root>
    </mxGraphModel>
  </diagram>
</mxfile>
